<svg width="426" height="99" viewBox="0 0 426 99" fill="none" xmlns="http://www.w3.org/2000/svg">
<path d="M406 0H20C8.95431 0 0 8.95431 0 20V79C0 90.0457 8.95431 99 20 99H406C417.046 99 426 90.0457 426 79V20C426 8.9543 417.046 0 406 0Z" fill="#F1EFE7"/>
<path d="M61.4373 67.4876C58.3368 63.9199 56.7915 59.5449 56.7915 54.3626C56.7915 49.1699 58.3368 44.7741 61.4373 41.1751C64.5329 37.5814 68.4701 35.7793 73.2488 35.7793C77.6289 35.7793 81.2461 37.2324 84.0956 40.1335V36.8001H95.5133V71.821H84.2137V67.8626H84.0956C81.2461 71.1855 77.6289 72.8418 73.2488 72.8418C68.4701 72.8418 64.5329 71.0605 61.4373 67.4876ZM71.1424 48.4043C69.6561 49.946 68.9179 51.9251 68.9179 54.3418C68.9179 56.7585 69.6266 58.7324 71.044 60.2585C72.4712 61.7741 74.3512 62.5293 76.6741 62.5293C78.9035 62.5293 80.7392 61.7585 82.1861 60.2168C83.6281 58.6647 84.3515 56.7064 84.3515 54.3418C84.3515 51.9251 83.6084 49.946 82.127 48.4043C80.6408 46.8626 78.8248 46.0918 76.6741 46.0918C74.4791 46.0918 72.6385 46.8626 71.1424 48.4043Z" fill="black"/>
<path d="M97.1851 71.821V36.8001H108.603V40.4876H108.721C111.684 37.3522 114.848 35.7793 118.209 35.7793C120.611 35.7793 122.865 36.3001 124.981 37.3418C127.093 38.3835 128.687 40.0033 129.765 42.196C133.112 37.9199 136.763 35.7793 140.73 35.7793C144.244 35.7793 147.27 36.8314 149.805 38.9251C152.349 41.0085 153.624 44.2793 153.624 48.7376V71.821H142.206V52.0293C142.206 50.1543 141.719 48.5918 140.75 47.3418C139.775 46.0918 138.328 45.4668 136.399 45.4668C134.716 45.4668 133.436 46.0033 132.56 47.071C131.679 48.1439 131.192 49.4251 131.104 50.9251V71.821H119.686V52.0293C119.686 50.1543 119.199 48.5918 118.229 47.3418C117.269 46.0918 115.818 45.4668 113.879 45.4668C112.117 45.4668 110.798 46.0501 109.922 47.2168C109.041 48.373 108.603 49.748 108.603 51.3418V71.821H97.1851Z" fill="black"/>
<path d="M188.714 41.1335C191.81 44.7064 193.36 49.0866 193.36 54.2793C193.36 59.4616 191.81 63.8522 188.714 67.446C185.614 71.0449 181.676 72.8418 176.903 72.8418C172.518 72.8418 168.91 71.3835 166.075 68.4668V89.571H154.658V36.8001H165.938V40.7585H166.075C168.91 37.4408 172.518 35.7793 176.903 35.7793C181.676 35.7793 185.614 37.5658 188.714 41.1335ZM179.009 60.2168C180.49 58.6647 181.233 56.6855 181.233 54.2793C181.233 51.8626 180.515 49.8991 179.088 48.3835C177.67 46.8574 175.805 46.0918 173.497 46.0918C171.253 46.0918 169.407 46.8626 167.965 48.4043C166.533 49.946 165.82 51.9043 165.82 54.2793C165.82 56.6855 166.558 58.6647 168.044 60.2168C169.525 61.7585 171.341 62.5293 173.497 62.5293C175.687 62.5293 177.523 61.7585 179.009 60.2168Z" fill="black"/>
<path d="M203.417 36.8003V53.4461C203.417 56.9201 203.909 59.3836 204.894 60.842C205.888 62.2899 207.571 63.0086 209.933 63.0086C212.296 63.0086 213.969 62.2899 214.953 60.842C215.947 59.3836 216.449 56.9201 216.449 53.4461V36.8003H227.867V56.3836C227.867 62.217 226.435 66.4201 223.575 68.9878C220.711 71.5607 216.164 72.842 209.933 72.842C203.698 72.842 199.15 71.5607 196.291 68.9878C193.427 66.4201 192 62.217 192 56.3836V36.8003H203.417Z" fill="black"/>
<path d="M243.27 35.7793C245.169 35.7793 247.04 36.0085 248.88 36.4668C250.731 36.9147 252.109 37.3626 253.014 37.821L254.373 38.5085L250.632 46.4251C248.044 44.9668 245.593 44.2376 243.27 44.2376C241.98 44.2376 241.07 44.3939 240.533 44.696C239.992 44.9876 239.726 45.5449 239.726 46.3626C239.726 46.5449 239.746 46.7272 239.785 46.9043C239.835 47.0866 239.923 47.2585 240.041 47.4251C240.169 47.5814 240.287 47.7116 240.396 47.821C240.514 47.9355 240.696 48.0605 240.947 48.196C241.208 48.3366 241.41 48.4408 241.557 48.5085C241.715 48.5814 241.961 48.6855 242.305 48.821C242.645 48.946 242.901 49.0449 243.073 49.1126C243.255 49.1855 243.55 49.2897 243.959 49.4251C244.362 49.5658 244.672 49.6543 244.884 49.696C246.223 50.1126 247.384 50.571 248.368 51.071C249.363 51.571 250.406 52.2533 251.498 53.1126C252.601 53.9772 253.452 55.0658 254.058 56.3835C254.658 57.7064 254.963 59.2116 254.963 60.9043C254.963 68.8626 249.732 72.8418 239.274 72.8418C236.911 72.8418 234.667 72.4564 232.541 71.696C230.415 70.9199 228.87 70.1439 227.915 69.3626L226.498 68.1335L231.143 59.8835C231.498 60.1908 231.951 60.5658 232.502 61.0085C233.063 61.4408 234.077 62.0293 235.533 62.7793C237 63.5293 238.27 63.9043 239.333 63.9043C241.705 63.9043 242.896 63.0658 242.896 61.3835C242.896 60.6074 242.591 60.0033 241.99 59.571C241.385 59.1439 240.361 58.6543 238.919 58.1126C237.472 57.5605 236.345 57.0501 235.533 56.5918C233.471 55.4564 231.837 54.1699 230.632 52.7376C229.421 51.3105 228.82 49.4043 228.82 47.0293C228.82 43.4876 230.12 40.7324 232.718 38.7585C235.327 36.7741 238.845 35.7793 243.27 35.7793Z" fill="black"/>
<path d="M310.113 71.8211L307.594 38.4461H307.259L296.373 71.4878H289.148L278.242 38.4461H277.907L275.407 71.8211H263.261L268.045 15.4878H280.939L292.75 47.9878L304.562 15.4878H317.456L322.24 71.8211H310.113Z" fill="black"/>
<path d="M323.316 67.4876C320.216 63.9199 318.67 59.5449 318.67 54.3626C318.67 49.1699 320.216 44.7741 323.316 41.1751C326.412 37.5814 330.349 35.7793 335.128 35.7793C339.508 35.7793 343.125 37.2324 345.975 40.1335V36.8001H357.392V71.821H346.093V67.8626H345.975C343.125 71.1855 339.508 72.8418 335.128 72.8418C330.349 72.8418 326.412 71.0605 323.316 67.4876ZM333.021 48.4043C331.535 49.946 330.797 51.9251 330.797 54.3418C330.797 56.7585 331.506 58.7324 332.923 60.2585C334.35 61.7741 336.23 62.5293 338.553 62.5293C340.782 62.5293 342.618 61.7585 344.065 60.2168C345.507 58.6647 346.23 56.7064 346.23 54.3418C346.23 51.9251 345.487 49.946 344.006 48.4043C342.52 46.8626 340.704 46.0918 338.553 46.0918C336.358 46.0918 334.517 46.8626 333.021 48.4043Z" fill="black"/>
<path d="M360.994 36.8005V23.7588H372.411V36.8005H379.38V46.0088H372.411V57.1338C372.411 60.3734 373.268 61.988 374.99 61.988C375.423 61.988 375.876 61.8994 376.348 61.7171C376.821 61.54 377.185 61.3577 377.451 61.1755L377.825 60.9046L380.66 70.6546C378.219 72.113 375.423 72.8421 372.274 72.8421C370.133 72.8421 368.287 72.4463 366.742 71.6546C365.192 70.8525 364.015 69.7796 363.218 68.4463C362.416 67.1025 361.845 65.6911 361.505 64.2171C361.161 62.7327 360.994 61.1494 360.994 59.4671V46.0088H356.21V36.8005H360.994Z" fill="black"/>
<path d="M411.944 55.9876H387.947C387.947 58.446 388.7 60.2689 390.211 61.446C391.717 62.6283 393.351 63.2168 395.113 63.2168C396.963 63.2168 398.425 62.9616 399.503 62.446C400.576 61.9199 401.806 60.8783 403.184 59.321L411.432 63.696C407.992 69.7949 402.269 72.8418 394.266 72.8418C389.276 72.8418 384.999 71.0397 381.431 67.4251C377.858 63.8001 376.077 59.4408 376.077 54.3418C376.077 49.248 377.858 44.8783 381.431 41.2376C384.999 37.6022 389.276 35.7793 394.266 35.7793C399.513 35.7793 403.784 37.3835 407.082 40.5918C410.374 43.8001 412.023 48.3835 412.023 54.3418C412.023 55.1647 411.993 55.7116 411.944 55.9876ZM388.282 49.3001H400.861C400.595 47.4824 399.916 46.0866 398.814 45.1126C397.721 44.1283 396.319 43.6335 394.601 43.6335C392.711 43.6335 391.2 44.1543 390.073 45.196C388.956 46.2376 388.361 47.6074 388.282 49.3001Z" fill="black"/>
<path d="M44.7303 62.5735C46.5807 62.5735 48.377 62.2766 50.1241 61.6827C51.8663 61.0783 53.1459 60.4898 53.9629 59.9225L55.1834 59.0317L60.341 70.1449C60.1688 70.288 59.9326 70.4789 59.6324 70.7175C59.3272 70.9455 58.6284 71.3697 57.526 71.99C56.4334 72.6156 55.267 73.1565 54.0219 73.623C52.7719 74.0896 51.138 74.5032 49.1202 74.8743C47.0975 75.2402 45.0108 75.4257 42.8601 75.4257C37.9091 75.4257 33.219 74.1214 28.7848 71.5022C24.3604 68.8883 20.7924 65.2882 18.0758 60.7072C15.369 56.1156 14.0205 51.1528 14.0205 45.8189C14.0205 41.7893 14.8129 37.9241 16.4025 34.218C18.0019 30.5171 20.1231 27.3412 22.761 24.6954C25.4087 22.055 28.4944 19.9447 32.0133 18.3753C35.5419 16.7953 39.1592 16 42.8601 16C46.2953 16 49.4647 16.4454 52.3683 17.3361C55.2818 18.2163 57.334 19.0911 58.53 19.966L60.341 21.2809L55.1834 32.4152C54.8783 32.1342 54.4255 31.7949 53.8251 31.3972C53.2197 31.0049 52.014 30.4853 50.2029 29.849C48.4016 29.2022 46.5807 28.8735 44.7303 28.8735C41.802 28.8735 39.1789 29.3825 36.856 30.4005C34.533 31.4185 32.6924 32.7652 31.344 34.43C29.9906 36.1002 28.962 37.8976 28.2533 39.817C27.5446 41.7416 27.1903 43.6981 27.1903 45.6917C27.1903 50.05 28.7061 53.9523 31.7377 57.3987C34.7693 60.8503 39.1001 62.5735 44.7303 62.5735Z" fill="black"/>
</svg>
