<svg width="446" height="150" viewBox="0 0 446 150" fill="none" xmlns="http://www.w3.org/2000/svg">
<path d="M425.568 0H20C8.95431 0 0 8.9543 0 20V130C0 141.046 8.95428 150 20 150H425.568C436.614 150 445.568 141.046 445.568 130V20C445.568 8.95431 436.614 0 425.568 0Z" fill="#F1EFE7"/>
<path d="M68.3708 75.4876C65.2733 71.9199 63.7295 67.5449 63.7295 62.3626C63.7295 57.1699 65.2733 52.7741 68.3708 49.1751C71.4634 45.5814 75.3967 43.7793 80.1708 43.7793C84.5467 43.7793 88.1604 45.2324 91.0072 48.1335V44.8001H102.414V79.821H91.1252V75.8626H91.0072C88.1604 79.1855 84.5467 80.8418 80.1708 80.8418C75.3967 80.8418 71.4634 79.0605 68.3708 75.4876ZM78.0665 56.4043C76.5817 57.946 75.8442 59.9251 75.8442 62.3418C75.8442 64.7585 76.5522 66.7324 77.9682 68.2585C79.394 69.7741 81.2722 70.5293 83.5928 70.5293C85.8201 70.5293 87.654 69.7585 89.0995 68.2168C90.5401 66.6647 91.2628 64.7064 91.2628 62.3418C91.2628 59.9251 90.5204 57.946 89.0405 56.4043C87.5557 54.8626 85.7414 54.0918 83.5928 54.0918C81.4 54.0918 79.5612 54.8626 78.0665 56.4043Z" fill="black"/>
<path d="M104.084 79.821V44.8001H115.491V48.4876H115.609C118.568 45.3522 121.73 43.7793 125.088 43.7793C127.487 43.7793 129.739 44.3001 131.853 45.3418C133.963 46.3835 135.556 48.0033 136.632 50.196C139.976 45.9199 143.624 43.7793 147.587 43.7793C151.097 43.7793 154.121 44.8314 156.653 46.9251C159.195 49.0085 160.468 52.2793 160.468 56.7376V79.821H149.062V60.0293C149.062 58.1543 148.575 56.5918 147.606 55.3418C146.633 54.0918 145.187 53.4668 143.26 53.4668C141.578 53.4668 140.3 54.0033 139.425 55.071C138.545 56.1439 138.058 57.4251 137.97 58.9251V79.821H126.563V60.0293C126.563 58.1543 126.076 56.5918 125.108 55.3418C124.149 54.0918 122.698 53.4668 120.761 53.4668C119.001 53.4668 117.683 54.0501 116.808 55.2168C115.928 56.373 115.491 57.748 115.491 59.3418V79.821H104.084Z" fill="black"/>
<path d="M195.524 49.1335C198.617 52.7064 200.166 57.0866 200.166 62.2793C200.166 67.4616 198.617 71.8522 195.524 75.446C192.427 79.0449 188.493 80.8418 183.724 80.8418C179.344 80.8418 175.74 79.3835 172.908 76.4668V97.571H161.501V44.8001H172.77V48.7585H172.908C175.74 45.4408 179.344 43.7793 183.724 43.7793C188.493 43.7793 192.427 45.5658 195.524 49.1335ZM185.829 68.2168C187.309 66.6647 188.051 64.6855 188.051 62.2793C188.051 59.8626 187.333 57.8991 185.907 56.3835C184.491 54.8574 182.628 54.0918 180.322 54.0918C178.08 54.0918 176.236 54.8626 174.796 56.4043C173.365 57.946 172.652 59.9043 172.652 62.2793C172.652 64.6855 173.389 66.6647 174.874 68.2168C176.354 69.7585 178.168 70.5293 180.322 70.5293C182.51 70.5293 184.344 69.7585 185.829 68.2168Z" fill="black"/>
<path d="M210.213 44.8003V61.4461C210.213 64.9201 210.705 67.3836 211.688 68.842C212.681 70.2899 214.363 71.0086 216.723 71.0086C219.083 71.0086 220.755 70.2899 221.738 68.842C222.731 67.3836 223.233 64.9201 223.233 61.4461V44.8003H234.639V64.3836C234.639 70.217 233.209 74.4201 230.352 76.9878C227.49 79.5607 222.947 80.842 216.723 80.842C210.494 80.842 205.951 79.5607 203.094 76.9878C200.232 74.4201 198.807 70.217 198.807 64.3836V44.8003H210.213Z" fill="black"/>
<path d="M250.027 43.7793C251.925 43.7793 253.794 44.0085 255.632 44.4668C257.481 44.9147 258.858 45.3626 259.762 45.821L261.119 46.5085L257.383 54.4251C254.797 52.9668 252.348 52.2376 250.027 52.2376C248.739 52.2376 247.83 52.3939 247.294 52.696C246.753 52.9876 246.487 53.5449 246.487 54.3626C246.487 54.5449 246.507 54.7272 246.546 54.9043C246.596 55.0866 246.684 55.2585 246.802 55.4251C246.93 55.5814 247.048 55.7116 247.156 55.821C247.274 55.9355 247.456 56.0605 247.707 56.196C247.967 56.3366 248.169 56.4408 248.316 56.5085C248.474 56.5814 248.72 56.6855 249.064 56.821C249.403 56.946 249.659 57.0449 249.831 57.1126C250.013 57.1855 250.308 57.2897 250.716 57.4251C251.119 57.5658 251.429 57.6543 251.64 57.696C252.977 58.1126 254.138 58.571 255.121 59.071C256.114 59.571 257.157 60.2533 258.248 61.1126C259.349 61.9772 260.2 63.0658 260.805 64.3835C261.405 65.7064 261.709 67.2116 261.709 68.9043C261.709 76.8626 256.483 80.8418 246.035 80.8418C243.675 80.8418 241.433 80.4564 239.309 79.696C237.185 78.9199 235.641 78.1439 234.687 77.3626L233.271 76.1335L237.913 67.8835C238.267 68.1908 238.719 68.5658 239.27 69.0085C239.83 69.4408 240.843 70.0293 242.298 70.7793C243.764 71.5293 245.032 71.9043 246.094 71.9043C248.464 71.9043 249.654 71.0658 249.654 69.3835C249.654 68.6074 249.349 68.0033 248.749 67.571C248.144 67.1439 247.122 66.6543 245.681 66.1126C244.236 65.5605 243.11 65.0501 242.298 64.5918C240.238 63.4564 238.606 62.1699 237.401 60.7376C236.192 59.3105 235.592 57.4043 235.592 55.0293C235.592 51.4876 236.89 48.7324 239.486 46.7585C242.092 44.7741 245.607 43.7793 250.027 43.7793Z" fill="black"/>
<path d="M316.806 79.8211L314.289 46.4461H313.955L303.079 79.4878H295.861L284.966 46.4461H284.632L282.134 79.8211H270L274.779 23.4878H287.66L299.46 55.9878L311.26 23.4878H324.142L328.921 79.8211H316.806Z" fill="black"/>
<path d="M329.996 75.4876C326.899 71.9199 325.355 67.5449 325.355 62.3626C325.355 57.1699 326.899 52.7741 329.996 49.1751C333.089 45.5814 337.022 43.7793 341.796 43.7793C346.172 43.7793 349.786 45.2324 352.633 48.1335V44.8001H364.039V79.821H352.751V75.8626H352.633C349.786 79.1855 346.172 80.8418 341.796 80.8418C337.022 80.8418 333.089 79.0605 329.996 75.4876ZM339.692 56.4043C338.207 57.946 337.47 59.9251 337.47 62.3418C337.47 64.7585 338.178 66.7324 339.594 68.2585C341.019 69.7741 342.898 70.5293 345.218 70.5293C347.446 70.5293 349.279 69.7585 350.725 68.2168C352.166 66.6647 352.888 64.7064 352.888 62.3418C352.888 59.9251 352.146 57.946 350.666 56.4043C349.181 54.8626 347.367 54.0918 345.218 54.0918C343.025 54.0918 341.187 54.8626 339.692 56.4043Z" fill="black"/>
<path d="M367.637 44.8005V31.7588H379.044V44.8005H386.006V54.0088H379.044V65.1338C379.044 68.3734 379.899 69.988 381.62 69.988C382.053 69.988 382.505 69.8994 382.977 69.7171C383.449 69.54 383.813 69.3577 384.078 69.1755L384.452 68.9046L387.284 78.6546C384.845 80.113 382.053 80.8421 378.906 80.8421C376.767 80.8421 374.923 80.4463 373.38 79.6546C371.831 78.8525 370.656 77.7796 369.859 76.4463C369.058 75.1025 368.487 73.6911 368.148 72.2171C367.804 70.7327 367.637 69.1494 367.637 67.4671V54.0088H362.858V44.8005H367.637Z" fill="black"/>
<path d="M418.538 63.9876H394.565C394.565 66.446 395.317 68.2689 396.826 69.446C398.331 70.6283 399.963 71.2168 401.723 71.2168C403.572 71.2168 405.032 70.9616 406.109 70.446C407.181 69.9199 408.41 68.8783 409.787 67.321L418.027 71.696C414.59 77.7949 408.872 80.8418 400.878 80.8418C395.892 80.8418 391.619 79.0397 388.055 75.4251C384.485 71.8001 382.706 67.4408 382.706 62.3418C382.706 57.248 384.485 52.8783 388.055 49.2376C391.619 45.6022 395.892 43.7793 400.878 43.7793C406.119 43.7793 410.386 45.3835 413.681 48.5918C416.97 51.8001 418.617 56.3835 418.617 62.3418C418.617 63.1647 418.587 63.7116 418.538 63.9876ZM394.899 57.3001H407.466C407.2 55.4824 406.522 54.0866 405.421 53.1126C404.329 52.1283 402.928 51.6335 401.212 51.6335C399.324 51.6335 397.814 52.1543 396.689 53.196C395.572 54.2376 394.978 55.6074 394.899 57.3001Z" fill="black"/>
<path d="M53.0728 117.403C53.0728 117.184 53.1367 116.923 53.2694 116.632C53.412 116.33 53.589 116.069 53.8004 115.861C54.0217 115.653 54.2429 115.548 54.4691 115.548C54.8083 115.548 54.9804 115.705 54.9804 116.007C54.9804 116.121 54.946 116.205 54.8821 116.257C54.828 116.314 54.7543 116.356 54.6658 116.382C54.5871 116.413 54.5183 116.434 54.4691 116.444C54.2331 116.585 54.1151 116.793 54.1151 117.069C54.1151 117.168 54.1446 117.251 54.2134 117.319C54.2921 117.392 54.3904 117.423 54.5084 117.423C54.6658 117.423 54.7887 117.392 54.8821 117.319C54.9608 117.361 55.0198 117.418 55.0591 117.486C55.1083 117.559 55.1279 117.647 55.1181 117.757C55.1181 117.996 55.005 118.194 54.7838 118.361C54.5723 118.528 54.3413 118.611 54.0954 118.611C53.7906 118.611 53.5448 118.507 53.3481 118.298C53.1613 118.09 53.0728 117.793 53.0728 117.403ZM55.6098 117.403C55.6098 117.184 55.6737 116.923 55.8064 116.632C55.949 116.33 56.126 116.069 56.3374 115.861C56.5587 115.653 56.7799 115.548 57.0061 115.548C57.3453 115.548 57.5174 115.705 57.5174 116.007C57.5174 116.121 57.483 116.205 57.4191 116.257C57.365 116.314 57.2913 116.356 57.2028 116.382C57.1241 116.413 57.0553 116.434 57.0061 116.444C56.7701 116.585 56.6521 116.793 56.6521 117.069C56.6521 117.168 56.6816 117.251 56.7504 117.319C56.8291 117.392 56.9274 117.423 57.0454 117.423C57.2028 117.423 57.3257 117.392 57.4191 117.319C57.4978 117.361 57.5568 117.418 57.5961 117.486C57.6453 117.559 57.6649 117.647 57.6551 117.757C57.6551 117.996 57.542 118.194 57.3208 118.361C57.1093 118.528 56.8783 118.611 56.6324 118.611C56.3276 118.611 56.0818 118.507 55.8851 118.298C55.6983 118.09 55.6098 117.793 55.6098 117.403Z" fill="black"/>
<path d="M70.1844 124.09C70.2631 124.163 70.327 124.246 70.3811 124.34C70.4302 124.439 70.4597 124.538 70.4597 124.631C70.4597 124.829 70.4007 124.975 70.2827 125.069C70.1647 125.152 70.0271 125.194 69.8697 125.194C69.6976 125.194 69.56 125.163 69.4567 125.09C69.1912 124.923 68.9749 124.668 68.8077 124.319C68.6504 123.975 68.5717 123.459 68.5717 122.777C68.5717 122.319 68.439 121.986 68.1784 121.777C67.9129 121.558 67.5736 121.444 67.1557 121.444H64.5401V124.527C64.5401 124.725 64.486 124.881 64.3827 125.006C64.2746 125.131 64.1467 125.194 63.9894 125.194C63.7927 125.194 63.6206 125.131 63.4781 125.006C63.3306 124.881 63.2617 124.725 63.2617 124.527V116.236C63.2617 116.043 63.3207 115.881 63.4387 115.756C63.5567 115.631 63.6993 115.569 63.8714 115.569H67.5294C68.0014 115.569 68.4242 115.694 68.8077 115.944C69.2011 116.183 69.5157 116.517 69.7517 116.944C69.9877 117.361 70.1057 117.84 70.1057 118.381C70.1057 118.897 69.973 119.376 69.7124 119.819C69.4469 120.267 69.1126 120.59 68.7094 120.798C69.0241 120.98 69.2699 121.23 69.4567 121.548C69.6534 121.855 69.7566 122.215 69.7714 122.631C69.8107 123.147 69.8501 123.501 69.8894 123.694C69.9287 123.876 70.0271 124.006 70.1844 124.09ZM67.5097 120.298C67.7162 120.288 67.9227 120.194 68.1194 120.027C68.3161 119.861 68.4734 119.642 68.5914 119.361C68.7094 119.084 68.7684 118.772 68.7684 118.423C68.7684 117.98 68.6356 117.605 68.3751 117.298C68.1243 116.996 67.8244 116.84 67.4704 116.84H64.5401V120.298H67.5097Z" fill="black"/>
<path d="M81.9145 121.319C81.9145 121.486 81.8456 121.626 81.7178 121.736C81.5998 121.85 81.4621 121.902 81.3048 121.902H76.7225C76.7864 122.569 77.0273 123.111 77.4501 123.527C77.8681 123.933 78.3794 124.131 78.9841 124.131C79.4021 124.131 79.7413 124.069 80.0068 123.944C80.2674 123.808 80.4985 123.642 80.6951 123.444C80.823 123.361 80.9508 123.319 81.0688 123.319C81.2114 123.319 81.3294 123.376 81.4228 123.486C81.5261 123.584 81.5801 123.709 81.5801 123.861C81.5801 124.058 81.4916 124.23 81.3245 124.381C81.0737 124.647 80.7394 124.876 80.3215 125.069C79.9134 125.246 79.4955 125.34 79.0628 125.34C78.3548 125.34 77.7304 125.189 77.1945 124.881C76.6684 124.564 76.2603 124.126 75.9751 123.569C75.6851 123.001 75.5425 122.361 75.5425 121.652C75.5425 120.892 75.6851 120.215 75.9751 119.631C76.2751 119.048 76.6684 118.605 77.1551 118.298C77.6517 117.98 78.1827 117.819 78.7481 117.819C79.2988 117.819 79.8151 117.975 80.3018 118.277C80.7836 118.584 81.1721 119.001 81.4621 119.527C81.7621 120.058 81.9145 120.652 81.9145 121.319ZM78.7481 119.027C78.2614 119.027 77.8435 119.173 77.4895 119.465C77.1355 119.756 76.8995 120.204 76.7815 120.798H80.6165V120.694C80.5771 120.209 80.3657 119.814 79.9871 119.506C79.6184 119.189 79.2054 119.027 78.7481 119.027Z" fill="black"/>
<path d="M88.5408 124.527C88.5408 124.725 88.4818 124.882 88.3638 125.007C88.2458 125.132 88.0983 125.194 87.9311 125.194C87.7443 125.194 87.5968 125.132 87.4788 125.007C87.3706 124.882 87.3215 124.725 87.3215 124.527V118.59C87.3215 118.397 87.3706 118.236 87.4788 118.111C87.5968 117.986 87.7443 117.923 87.9311 117.923C88.0983 117.923 88.2458 117.986 88.3638 118.111C88.4818 118.236 88.5408 118.397 88.5408 118.59V124.527ZM87.9115 117.007C87.6607 117.007 87.4837 116.96 87.3805 116.861C87.2723 116.767 87.2231 116.611 87.2231 116.402V116.194C87.2231 115.975 87.2821 115.819 87.4001 115.736C87.5181 115.642 87.6951 115.59 87.9311 115.59C88.1671 115.59 88.3343 115.642 88.4425 115.736C88.5605 115.835 88.6195 115.986 88.6195 116.194V116.402C88.6195 116.626 88.5605 116.788 88.4425 116.882C88.3343 116.965 88.1573 117.007 87.9115 117.007Z" fill="black"/>
<path d="M102.166 117.861C103.671 117.861 104.428 118.861 104.428 120.861V124.528C104.428 124.725 104.369 124.882 104.251 125.007C104.143 125.132 104 125.194 103.818 125.194C103.631 125.194 103.484 125.132 103.366 125.007C103.248 124.882 103.189 124.725 103.189 124.528V120.882C103.189 119.673 102.717 119.069 101.773 119.069C101.429 119.069 101.124 119.153 100.848 119.319C100.573 119.475 100.357 119.689 100.199 119.965C100.052 120.246 99.9831 120.548 99.9831 120.882V124.528C99.9831 124.725 99.9241 124.882 99.8061 125.007C99.6881 125.132 99.5406 125.194 99.3734 125.194C99.1866 125.194 99.0391 125.132 98.9211 125.007C98.8129 124.882 98.7637 124.725 98.7637 124.528V120.861C98.7637 120.319 98.6506 119.892 98.4294 119.569C98.218 119.236 97.8591 119.069 97.3477 119.069C96.8364 119.069 96.4136 119.246 96.0891 119.59C95.7596 119.939 95.5974 120.361 95.5974 120.861V124.528C95.5974 124.725 95.5384 124.882 95.4204 125.007C95.3024 125.132 95.15 125.194 94.9681 125.194C94.7812 125.194 94.6337 125.132 94.5157 125.007C94.4076 124.882 94.3584 124.725 94.3584 124.528V118.653C94.3584 118.475 94.4174 118.319 94.5354 118.194C94.6534 118.059 94.796 117.986 94.9681 117.986C95.15 117.986 95.3024 118.059 95.4204 118.194C95.5384 118.319 95.5974 118.475 95.5974 118.653V119.132C95.8186 118.772 96.1136 118.475 96.4824 118.236C96.861 117.986 97.274 117.861 97.7214 117.861C98.7932 117.861 99.4914 118.371 99.8061 119.382C100.003 118.996 100.317 118.647 100.75 118.34C101.193 118.022 101.665 117.861 102.166 117.861Z" fill="black"/>
<path d="M115.802 117.902C115.983 117.902 116.136 117.965 116.254 118.09C116.372 118.204 116.431 118.361 116.431 118.569V124.527C116.431 124.725 116.372 124.881 116.254 125.006C116.136 125.131 115.983 125.194 115.802 125.194C115.629 125.194 115.487 125.131 115.369 125.006C115.251 124.881 115.192 124.725 115.192 124.527V124.173C114.966 124.496 114.661 124.772 114.268 125.006C113.884 125.225 113.466 125.34 113.009 125.34C112.429 125.34 111.898 125.183 111.416 124.861C110.929 124.527 110.551 124.079 110.275 123.506C110.01 122.939 109.882 122.293 109.882 121.569C109.882 120.861 110.01 120.225 110.275 119.652C110.551 119.069 110.924 118.621 111.396 118.298C111.878 117.98 112.404 117.819 112.97 117.819C113.427 117.819 113.855 117.923 114.248 118.131C114.651 118.329 114.966 118.584 115.192 118.902V118.569C115.192 118.376 115.251 118.215 115.369 118.09C115.487 117.965 115.629 117.902 115.802 117.902ZM113.166 124.131C113.569 124.131 113.933 124.022 114.248 123.798C114.563 123.579 114.803 123.272 114.976 122.881C115.157 122.496 115.251 122.058 115.251 121.569C115.251 121.1 115.157 120.673 114.976 120.298C114.803 119.913 114.563 119.605 114.248 119.381C113.933 119.147 113.569 119.027 113.166 119.027C112.758 119.027 112.399 119.142 112.085 119.361C111.77 119.584 111.519 119.892 111.337 120.277C111.15 120.652 111.062 121.084 111.062 121.569C111.062 122.058 111.15 122.496 111.337 122.881C111.519 123.272 111.77 123.579 112.085 123.798C112.399 124.022 112.758 124.131 113.166 124.131Z" fill="black"/>
<path d="M127.974 117.902C128.156 117.902 128.308 117.965 128.426 118.09C128.544 118.204 128.603 118.361 128.603 118.569V124.611C128.603 125.361 128.451 125.986 128.151 126.486C127.846 126.986 127.443 127.35 126.932 127.59C126.42 127.824 125.84 127.944 125.201 127.944C124.857 127.944 124.454 127.881 123.982 127.756C123.52 127.631 123.225 127.496 123.097 127.361C122.831 127.204 122.703 127.017 122.703 126.798C122.703 126.741 122.723 126.673 122.762 126.59C122.851 126.35 123.008 126.236 123.234 126.236C123.352 126.236 123.475 126.262 123.608 126.319C124.287 126.611 124.827 126.756 125.221 126.756C125.914 126.756 126.445 126.574 126.814 126.215C127.178 125.866 127.364 125.387 127.364 124.777V124.027C127.178 124.392 126.873 124.704 126.44 124.965C126.017 125.215 125.565 125.34 125.083 125.34C124.493 125.34 123.947 125.183 123.451 124.861C122.964 124.527 122.576 124.079 122.29 123.506C122.015 122.939 121.877 122.293 121.877 121.569C121.877 120.861 122.015 120.225 122.29 119.652C122.576 119.069 122.964 118.621 123.451 118.298C123.933 117.98 124.473 117.819 125.063 117.819C125.535 117.819 125.973 117.939 126.381 118.173C126.799 118.397 127.128 118.673 127.364 119.006V118.569C127.364 118.376 127.414 118.215 127.522 118.09C127.64 117.965 127.787 117.902 127.974 117.902ZM125.24 124.131C125.658 124.131 126.032 124.022 126.361 123.798C126.686 123.579 126.942 123.272 127.128 122.881C127.325 122.496 127.423 122.058 127.423 121.569C127.423 121.084 127.325 120.652 127.128 120.277C126.942 119.892 126.686 119.584 126.361 119.361C126.032 119.142 125.658 119.027 125.24 119.027C124.818 119.027 124.444 119.142 124.119 119.361C123.79 119.584 123.529 119.892 123.333 120.277C123.146 120.668 123.057 121.1 123.057 121.569C123.057 122.058 123.146 122.496 123.333 122.881C123.529 123.272 123.79 123.579 124.119 123.798C124.444 124.022 124.818 124.131 125.24 124.131Z" fill="black"/>
<path d="M135.615 124.527C135.615 124.725 135.556 124.882 135.438 125.007C135.32 125.132 135.172 125.194 135.005 125.194C134.818 125.194 134.671 125.132 134.553 125.007C134.444 124.882 134.395 124.725 134.395 124.527V118.59C134.395 118.397 134.444 118.236 134.553 118.111C134.671 117.986 134.818 117.923 135.005 117.923C135.172 117.923 135.32 117.986 135.438 118.111C135.556 118.236 135.615 118.397 135.615 118.59V124.527ZM134.985 117.007C134.734 117.007 134.557 116.96 134.454 116.861C134.346 116.767 134.297 116.611 134.297 116.402V116.194C134.297 115.975 134.356 115.819 134.474 115.736C134.592 115.642 134.769 115.59 135.005 115.59C135.241 115.59 135.408 115.642 135.516 115.736C135.634 115.835 135.693 115.986 135.693 116.194V116.402C135.693 116.626 135.634 116.788 135.516 116.882C135.408 116.965 135.231 117.007 134.985 117.007Z" fill="black"/>
<path d="M144.893 117.819C146.452 117.819 147.233 118.814 147.233 120.798V124.527C147.233 124.725 147.174 124.881 147.056 125.006C146.938 125.131 146.786 125.194 146.604 125.194C146.432 125.194 146.289 125.131 146.171 125.006C146.053 124.881 145.994 124.725 145.994 124.527V120.798C145.994 120.272 145.876 119.85 145.64 119.527C145.414 119.194 145.036 119.027 144.5 119.027C144.155 119.027 143.841 119.111 143.556 119.277C143.28 119.433 143.064 119.647 142.907 119.923C142.749 120.189 142.671 120.48 142.671 120.798V124.527C142.671 124.725 142.612 124.881 142.494 125.006C142.376 125.131 142.223 125.194 142.041 125.194C141.854 125.194 141.707 125.131 141.589 125.006C141.481 124.881 141.432 124.725 141.432 124.527V118.652C141.432 118.475 141.491 118.319 141.609 118.194C141.727 118.058 141.869 117.986 142.041 117.986C142.223 117.986 142.376 118.058 142.494 118.194C142.612 118.319 142.671 118.475 142.671 118.652V119.131C142.892 118.772 143.202 118.465 143.595 118.215C143.998 117.954 144.431 117.819 144.893 117.819Z" fill="black"/>
<path d="M154.263 124.527C154.263 124.725 154.204 124.882 154.086 125.007C153.968 125.132 153.821 125.194 153.654 125.194C153.467 125.194 153.319 125.132 153.201 125.007C153.093 124.882 153.044 124.725 153.044 124.527V118.59C153.044 118.397 153.093 118.236 153.201 118.111C153.319 117.986 153.467 117.923 153.654 117.923C153.821 117.923 153.968 117.986 154.086 118.111C154.204 118.236 154.263 118.397 154.263 118.59V124.527ZM153.634 117.007C153.383 117.007 153.206 116.96 153.103 116.861C152.995 116.767 152.946 116.611 152.946 116.402V116.194C152.946 115.975 153.005 115.819 153.123 115.736C153.241 115.642 153.418 115.59 153.654 115.59C153.89 115.59 154.057 115.642 154.165 115.736C154.283 115.835 154.342 115.986 154.342 116.194V116.402C154.342 116.626 154.283 116.788 154.165 116.882C154.057 116.965 153.88 117.007 153.634 117.007Z" fill="black"/>
<path d="M163.542 117.819C165.101 117.819 165.883 118.814 165.883 120.798V124.527C165.883 124.725 165.824 124.881 165.706 125.006C165.588 125.131 165.435 125.194 165.253 125.194C165.081 125.194 164.939 125.131 164.821 125.006C164.703 124.881 164.644 124.725 164.644 124.527V120.798C164.644 120.272 164.526 119.85 164.29 119.527C164.064 119.194 163.685 119.027 163.149 119.027C162.805 119.027 162.49 119.111 162.205 119.277C161.93 119.433 161.713 119.647 161.556 119.923C161.399 120.189 161.32 120.48 161.32 120.798V124.527C161.32 124.725 161.261 124.881 161.143 125.006C161.025 125.131 160.873 125.194 160.691 125.194C160.504 125.194 160.356 125.131 160.238 125.006C160.13 124.881 160.081 124.725 160.081 124.527V118.652C160.081 118.475 160.14 118.319 160.258 118.194C160.376 118.058 160.519 117.986 160.691 117.986C160.873 117.986 161.025 118.058 161.143 118.194C161.261 118.319 161.32 118.475 161.32 118.652V119.131C161.541 118.772 161.851 118.465 162.244 118.215C162.648 117.954 163.08 117.819 163.542 117.819Z" fill="black"/>
<path d="M177.436 117.902C177.617 117.902 177.77 117.965 177.888 118.09C178.006 118.204 178.065 118.361 178.065 118.569V124.611C178.065 125.361 177.912 125.986 177.613 126.486C177.308 126.986 176.905 127.35 176.393 127.59C175.882 127.824 175.302 127.944 174.663 127.944C174.318 127.944 173.915 127.881 173.443 127.756C172.981 127.631 172.686 127.496 172.558 127.361C172.293 127.204 172.165 127.017 172.165 126.798C172.165 126.741 172.185 126.673 172.224 126.59C172.312 126.35 172.47 126.236 172.696 126.236C172.814 126.236 172.937 126.262 173.07 126.319C173.748 126.611 174.289 126.756 174.682 126.756C175.375 126.756 175.906 126.574 176.275 126.215C176.639 125.866 176.826 125.387 176.826 124.777V124.027C176.639 124.392 176.334 124.704 175.902 124.965C175.479 125.215 175.026 125.34 174.545 125.34C173.955 125.34 173.409 125.183 172.912 124.861C172.425 124.527 172.037 124.079 171.752 123.506C171.477 122.939 171.339 122.293 171.339 121.569C171.339 120.861 171.477 120.225 171.752 119.652C172.037 119.069 172.425 118.621 172.912 118.298C173.394 117.98 173.935 117.819 174.525 117.819C174.997 117.819 175.434 117.939 175.843 118.173C176.26 118.397 176.59 118.673 176.826 119.006V118.569C176.826 118.376 176.875 118.215 176.983 118.09C177.101 117.965 177.249 117.902 177.436 117.902ZM174.702 124.131C175.12 124.131 175.493 124.022 175.823 123.798C176.147 123.579 176.403 123.272 176.59 122.881C176.787 122.496 176.885 122.058 176.885 121.569C176.885 121.084 176.787 120.652 176.59 120.277C176.403 119.892 176.147 119.584 175.823 119.361C175.493 119.142 175.12 119.027 174.702 119.027C174.279 119.027 173.905 119.142 173.581 119.361C173.251 119.584 172.991 119.892 172.794 120.277C172.607 120.668 172.519 121.1 172.519 121.569C172.519 122.058 172.607 122.496 172.794 122.881C172.991 123.272 173.251 123.579 173.581 123.798C173.905 124.022 174.279 124.131 174.702 124.131Z" fill="black"/>
<path d="M198.17 116.132C198.376 116.257 198.484 116.439 198.484 116.673C198.484 116.84 198.43 116.996 198.327 117.132C198.219 117.288 198.076 117.361 197.894 117.361C197.776 117.361 197.658 117.329 197.54 117.257C197.014 116.939 196.439 116.777 195.81 116.777C195.166 116.777 194.595 116.934 194.099 117.236C193.597 117.543 193.204 117.965 192.919 118.507C192.643 119.048 192.506 119.673 192.506 120.382C192.506 121.147 192.648 121.809 192.938 122.361C193.224 122.902 193.617 123.319 194.118 123.611C194.615 123.902 195.18 124.048 195.81 124.048C196.449 124.048 197.029 123.882 197.54 123.548C197.644 123.496 197.762 123.465 197.894 123.465C198.076 123.465 198.229 123.543 198.347 123.694C198.45 123.835 198.504 123.98 198.504 124.132C198.504 124.246 198.47 124.35 198.406 124.444C198.352 124.543 198.278 124.621 198.189 124.673C197.845 124.871 197.467 125.027 197.049 125.152C196.626 125.277 196.213 125.34 195.81 125.34C194.969 125.34 194.197 125.147 193.489 124.757C192.781 124.355 192.216 123.777 191.798 123.027C191.375 122.277 191.168 121.397 191.168 120.382C191.168 119.454 191.37 118.621 191.778 117.882C192.181 117.132 192.732 116.543 193.43 116.111C194.138 115.684 194.93 115.465 195.81 115.465C196.646 115.465 197.432 115.689 198.17 116.132Z" fill="black"/>
<path d="M210.28 121.59C210.28 122.314 210.127 122.959 209.827 123.527C209.522 124.084 209.109 124.527 208.588 124.861C208.062 125.183 207.487 125.34 206.858 125.34C206.228 125.34 205.648 125.183 205.127 124.861C204.601 124.527 204.188 124.084 203.888 123.527C203.583 122.959 203.436 122.314 203.436 121.59C203.436 120.881 203.583 120.236 203.888 119.652C204.188 119.069 204.601 118.621 205.127 118.298C205.648 117.98 206.228 117.819 206.858 117.819C207.487 117.819 208.062 117.98 208.588 118.298C209.109 118.621 209.522 119.069 209.827 119.652C210.127 120.236 210.28 120.881 210.28 121.59ZM209.06 121.59C209.06 121.09 208.962 120.647 208.765 120.256C208.569 119.871 208.298 119.569 207.959 119.361C207.629 119.142 207.261 119.027 206.858 119.027C206.449 119.027 206.076 119.142 205.737 119.361C205.407 119.569 205.147 119.871 204.95 120.256C204.753 120.647 204.655 121.09 204.655 121.59C204.655 122.079 204.753 122.517 204.95 122.902C205.147 123.277 205.407 123.579 205.737 123.798C206.076 124.022 206.449 124.131 206.858 124.131C207.261 124.131 207.629 124.022 207.959 123.798C208.298 123.579 208.569 123.277 208.765 122.902C208.962 122.517 209.06 122.079 209.06 121.59Z" fill="black"/>
<path d="M217.077 124.527C217.077 124.725 217.009 124.882 216.881 125.007C216.763 125.132 216.615 125.194 216.448 125.194C216.276 125.194 216.133 125.132 216.015 125.007C215.897 124.882 215.838 124.725 215.838 124.527V115.673C215.838 115.496 215.897 115.34 216.015 115.215C216.143 115.09 216.296 115.027 216.468 115.027C216.635 115.027 216.782 115.09 216.9 115.215C217.018 115.34 217.077 115.496 217.077 115.673V124.527Z" fill="black"/>
<path d="M224.392 124.527C224.392 124.725 224.323 124.882 224.196 125.007C224.078 125.132 223.93 125.194 223.763 125.194C223.591 125.194 223.448 125.132 223.33 125.007C223.212 124.882 223.153 124.725 223.153 124.527V115.673C223.153 115.496 223.212 115.34 223.33 115.215C223.458 115.09 223.611 115.027 223.783 115.027C223.95 115.027 224.097 115.09 224.215 115.215C224.333 115.34 224.392 115.496 224.392 115.673V124.527Z" fill="black"/>
<path d="M236.329 121.319C236.329 121.486 236.26 121.626 236.132 121.736C236.014 121.85 235.876 121.902 235.719 121.902H231.137C231.2 122.569 231.441 123.111 231.864 123.527C232.282 123.933 232.793 124.131 233.398 124.131C233.816 124.131 234.155 124.069 234.421 123.944C234.681 123.808 234.913 123.642 235.109 123.444C235.237 123.361 235.365 123.319 235.483 123.319C235.625 123.319 235.743 123.376 235.837 123.486C235.94 123.584 235.994 123.709 235.994 123.861C235.994 124.058 235.906 124.23 235.739 124.381C235.488 124.647 235.153 124.876 234.736 125.069C234.327 125.246 233.91 125.34 233.477 125.34C232.769 125.34 232.144 125.189 231.609 124.881C231.082 124.564 230.674 124.126 230.389 123.569C230.099 123.001 229.957 122.361 229.957 121.652C229.957 120.892 230.099 120.215 230.389 119.631C230.689 119.048 231.082 118.605 231.569 118.298C232.066 117.98 232.597 117.819 233.162 117.819C233.713 117.819 234.229 117.975 234.716 118.277C235.198 118.584 235.586 119.001 235.876 119.527C236.176 120.058 236.329 120.652 236.329 121.319ZM233.162 119.027C232.675 119.027 232.258 119.173 231.904 119.465C231.55 119.756 231.314 120.204 231.196 120.798H235.031V120.694C234.991 120.209 234.78 119.814 234.401 119.506C234.032 119.189 233.619 119.027 233.162 119.027Z" fill="black"/>
<path d="M247.478 117.902C247.66 117.902 247.812 117.965 247.93 118.09C248.048 118.204 248.107 118.361 248.107 118.569V124.611C248.107 125.361 247.955 125.986 247.655 126.486C247.35 126.986 246.947 127.35 246.436 127.59C245.924 127.824 245.344 127.944 244.705 127.944C244.361 127.944 243.958 127.881 243.486 127.756C243.024 127.631 242.729 127.496 242.601 127.361C242.335 127.204 242.207 127.017 242.207 126.798C242.207 126.741 242.227 126.673 242.266 126.59C242.355 126.35 242.512 126.236 242.738 126.236C242.856 126.236 242.979 126.262 243.112 126.319C243.791 126.611 244.331 126.756 244.725 126.756C245.418 126.756 245.949 126.574 246.318 126.215C246.682 125.866 246.868 125.387 246.868 124.777V124.027C246.682 124.392 246.377 124.704 245.944 124.965C245.521 125.215 245.069 125.34 244.587 125.34C243.997 125.34 243.451 125.183 242.955 124.861C242.468 124.527 242.08 124.079 241.794 123.506C241.519 122.939 241.381 122.293 241.381 121.569C241.381 120.861 241.519 120.225 241.794 119.652C242.08 119.069 242.468 118.621 242.955 118.298C243.437 117.98 243.977 117.819 244.567 117.819C245.039 117.819 245.477 117.939 245.885 118.173C246.303 118.397 246.632 118.673 246.868 119.006V118.569C246.868 118.376 246.918 118.215 247.026 118.09C247.144 117.965 247.291 117.902 247.478 117.902ZM244.744 124.131C245.162 124.131 245.536 124.022 245.865 123.798C246.19 123.579 246.446 123.272 246.632 122.881C246.829 122.496 246.927 122.058 246.927 121.569C246.927 121.084 246.829 120.652 246.632 120.277C246.446 119.892 246.19 119.584 245.865 119.361C245.536 119.142 245.162 119.027 244.744 119.027C244.322 119.027 243.948 119.142 243.623 119.361C243.294 119.584 243.033 119.892 242.837 120.277C242.65 120.668 242.561 121.1 242.561 121.569C242.561 122.058 242.65 122.496 242.837 122.881C243.033 123.272 243.294 123.579 243.623 123.798C243.948 124.022 244.322 124.131 244.744 124.131Z" fill="black"/>
<path d="M259.917 121.319C259.917 121.486 259.849 121.626 259.721 121.736C259.603 121.85 259.465 121.902 259.308 121.902H254.725C254.789 122.569 255.03 123.111 255.453 123.527C255.871 123.933 256.382 124.131 256.987 124.131C257.405 124.131 257.744 124.069 258.01 123.944C258.27 123.808 258.501 123.642 258.698 123.444C258.826 123.361 258.954 123.319 259.072 123.319C259.214 123.319 259.332 123.376 259.426 123.486C259.529 123.584 259.583 123.709 259.583 123.861C259.583 124.058 259.495 124.23 259.327 124.381C259.077 124.647 258.742 124.876 258.324 125.069C257.916 125.246 257.498 125.34 257.066 125.34C256.358 125.34 255.733 125.189 255.197 124.881C254.671 124.564 254.263 124.126 253.978 123.569C253.688 123.001 253.545 122.361 253.545 121.652C253.545 120.892 253.688 120.215 253.978 119.631C254.278 119.048 254.671 118.605 255.158 118.298C255.655 117.98 256.186 117.819 256.751 117.819C257.302 117.819 257.818 117.975 258.305 118.277C258.787 118.584 259.175 119.001 259.465 119.527C259.765 120.058 259.917 120.652 259.917 121.319ZM256.751 119.027C256.264 119.027 255.846 119.173 255.492 119.465C255.138 119.756 254.902 120.204 254.784 120.798H258.619V120.694C258.58 120.209 258.369 119.814 257.99 119.506C257.621 119.189 257.208 119.027 256.751 119.027Z" fill="black"/>
<path d="M279.834 120.132C280.001 120.132 280.148 120.205 280.266 120.34C280.384 120.465 280.443 120.621 280.443 120.798V123.882C280.443 124.132 280.335 124.33 280.129 124.465C279.735 124.746 279.293 124.96 278.811 125.111C278.339 125.262 277.852 125.34 277.356 125.34C276.49 125.34 275.694 125.121 274.976 124.673C274.253 124.231 273.683 123.632 273.265 122.882C272.842 122.121 272.636 121.288 272.636 120.382C272.636 119.481 272.842 118.653 273.265 117.903C273.683 117.142 274.253 116.538 274.976 116.09C275.694 115.647 276.49 115.423 277.356 115.423C277.788 115.423 278.201 115.481 278.595 115.59C278.998 115.689 279.367 115.835 279.696 116.028C279.799 116.1 279.878 116.184 279.932 116.278C279.981 116.361 280.011 116.46 280.011 116.569C280.011 116.751 279.952 116.913 279.834 117.048C279.716 117.189 279.568 117.257 279.401 117.257C279.268 117.257 279.155 117.225 279.067 117.153C278.501 116.876 277.931 116.736 277.356 116.736C276.726 116.736 276.156 116.897 275.645 117.215C275.133 117.538 274.725 117.981 274.425 118.548C274.121 119.106 273.973 119.715 273.973 120.382C273.973 121.048 274.121 121.663 274.425 122.215C274.725 122.772 275.133 123.215 275.645 123.548C276.156 123.871 276.726 124.028 277.356 124.028C277.641 124.028 277.951 123.996 278.28 123.923C278.605 123.84 278.89 123.746 279.126 123.632V121.444H277.552C277.38 121.444 277.228 121.382 277.1 121.257C276.982 121.132 276.923 120.981 276.923 120.798C276.923 120.606 276.982 120.444 277.1 120.319C277.228 120.194 277.38 120.132 277.552 120.132H279.834Z" fill="black"/>
<path d="M291.109 117.986C291.291 117.986 291.443 118.059 291.561 118.194C291.679 118.319 291.738 118.475 291.738 118.653V122.298C291.738 123.257 291.488 124.001 290.991 124.528C290.49 125.059 289.791 125.319 288.887 125.319C287.982 125.319 287.279 125.059 286.782 124.528C286.296 124.001 286.055 123.257 286.055 122.298V118.653C286.055 118.475 286.114 118.319 286.232 118.194C286.35 118.059 286.492 117.986 286.664 117.986C286.846 117.986 286.999 118.059 287.117 118.194C287.235 118.319 287.294 118.475 287.294 118.653V122.298C287.294 123.507 287.825 124.111 288.887 124.111C289.408 124.111 289.811 123.96 290.086 123.653C290.362 123.35 290.499 122.897 290.499 122.298V118.653C290.499 118.475 290.558 118.319 290.676 118.194C290.794 118.059 290.937 117.986 291.109 117.986Z" fill="black"/>
<path d="M298.77 124.527C298.77 124.725 298.711 124.882 298.593 125.007C298.475 125.132 298.327 125.194 298.16 125.194C297.973 125.194 297.826 125.132 297.708 125.007C297.6 124.882 297.55 124.725 297.55 124.527V118.59C297.55 118.397 297.6 118.236 297.708 118.111C297.826 117.986 297.973 117.923 298.16 117.923C298.327 117.923 298.475 117.986 298.593 118.111C298.711 118.236 298.77 118.397 298.77 118.59V124.527ZM298.14 117.007C297.89 117.007 297.713 116.96 297.609 116.861C297.501 116.767 297.452 116.611 297.452 116.402V116.194C297.452 115.975 297.511 115.819 297.629 115.736C297.747 115.642 297.924 115.59 298.16 115.59C298.396 115.59 298.563 115.642 298.671 115.736C298.789 115.835 298.848 115.986 298.848 116.194V116.402C298.848 116.626 298.789 116.788 298.671 116.882C298.563 116.965 298.386 117.007 298.14 117.007Z" fill="black"/>
<path d="M310.093 115.027C310.275 115.027 310.428 115.09 310.546 115.215C310.664 115.329 310.723 115.48 310.723 115.673V124.527C310.723 124.725 310.664 124.882 310.546 125.007C310.428 125.132 310.275 125.194 310.093 125.194C309.921 125.194 309.779 125.132 309.661 125.007C309.543 124.882 309.484 124.725 309.484 124.527V124.152C309.272 124.486 308.972 124.772 308.579 125.007C308.186 125.225 307.758 125.34 307.301 125.34C306.721 125.34 306.19 125.184 305.708 124.861C305.236 124.527 304.862 124.079 304.587 123.507C304.311 122.939 304.174 122.293 304.174 121.569C304.174 120.861 304.302 120.225 304.567 119.652C304.842 119.069 305.216 118.621 305.688 118.298C306.17 117.98 306.696 117.819 307.261 117.819C307.719 117.819 308.146 117.923 308.54 118.132C308.933 118.329 309.248 118.585 309.484 118.902V115.673C309.484 115.48 309.543 115.329 309.661 115.215C309.779 115.09 309.921 115.027 310.093 115.027ZM307.458 124.132C307.861 124.132 308.225 124.022 308.54 123.798C308.854 123.579 309.095 123.272 309.267 122.882C309.449 122.496 309.543 122.059 309.543 121.569C309.543 121.1 309.449 120.668 309.267 120.277C309.095 119.892 308.854 119.585 308.54 119.361C308.225 119.142 307.861 119.027 307.458 119.027C307.05 119.027 306.691 119.142 306.376 119.361C306.062 119.585 305.811 119.892 305.629 120.277C305.442 120.668 305.354 121.1 305.354 121.569C305.354 122.059 305.442 122.496 305.629 122.882C305.811 123.272 306.062 123.579 306.376 123.798C306.691 124.022 307.05 124.132 307.458 124.132Z" fill="black"/>
<path d="M322.089 117.902C322.271 117.902 322.423 117.965 322.541 118.09C322.659 118.204 322.718 118.361 322.718 118.569V124.527C322.718 124.725 322.659 124.881 322.541 125.006C322.423 125.131 322.271 125.194 322.089 125.194C321.917 125.194 321.774 125.131 321.656 125.006C321.538 124.881 321.479 124.725 321.479 124.527V124.173C321.253 124.496 320.948 124.772 320.555 125.006C320.172 125.225 319.754 125.34 319.296 125.34C318.716 125.34 318.185 125.183 317.703 124.861C317.217 124.527 316.838 124.079 316.563 123.506C316.297 122.939 316.169 122.293 316.169 121.569C316.169 120.861 316.297 120.225 316.563 119.652C316.838 119.069 317.212 118.621 317.684 118.298C318.166 117.98 318.692 117.819 319.257 117.819C319.714 117.819 320.142 117.923 320.535 118.131C320.939 118.329 321.253 118.584 321.479 118.902V118.569C321.479 118.376 321.538 118.215 321.656 118.09C321.774 117.965 321.917 117.902 322.089 117.902ZM319.454 124.131C319.857 124.131 320.221 124.022 320.535 123.798C320.85 123.579 321.091 123.272 321.263 122.881C321.445 122.496 321.538 122.058 321.538 121.569C321.538 121.1 321.445 120.673 321.263 120.298C321.091 119.913 320.85 119.605 320.535 119.381C320.221 119.147 319.857 119.027 319.454 119.027C319.046 119.027 318.687 119.142 318.372 119.361C318.057 119.584 317.807 119.892 317.625 120.277C317.438 120.652 317.349 121.084 317.349 121.569C317.349 122.058 317.438 122.496 317.625 122.881C317.807 123.272 318.057 123.579 318.372 123.798C318.687 124.022 319.046 124.131 319.454 124.131Z" fill="black"/>
<path d="M332.039 117.819C333.598 117.819 334.379 118.814 334.379 120.798V124.527C334.379 124.725 334.32 124.881 334.202 125.006C334.084 125.131 333.932 125.194 333.75 125.194C333.578 125.194 333.435 125.131 333.317 125.006C333.199 124.881 333.14 124.725 333.14 124.527V120.798C333.14 120.272 333.022 119.85 332.786 119.527C332.56 119.194 332.182 119.027 331.646 119.027C331.301 119.027 330.987 119.111 330.702 119.277C330.426 119.433 330.21 119.647 330.053 119.923C329.895 120.189 329.817 120.48 329.817 120.798V124.527C329.817 124.725 329.758 124.881 329.64 125.006C329.522 125.131 329.369 125.194 329.187 125.194C329 125.194 328.853 125.131 328.735 125.006C328.627 124.881 328.578 124.725 328.578 124.527V118.652C328.578 118.475 328.637 118.319 328.755 118.194C328.873 118.058 329.015 117.986 329.187 117.986C329.369 117.986 329.522 118.058 329.64 118.194C329.758 118.319 329.817 118.475 329.817 118.652V119.131C330.038 118.772 330.348 118.465 330.741 118.215C331.144 117.954 331.577 117.819 332.039 117.819Z" fill="black"/>
<path d="M343.199 117.819C343.877 117.819 344.448 117.939 344.91 118.173C345.367 118.397 345.598 118.689 345.598 119.048C345.598 119.204 345.544 119.34 345.441 119.465C345.348 119.59 345.23 119.652 345.087 119.652C344.969 119.652 344.876 119.642 344.812 119.611C344.758 119.569 344.674 119.506 344.556 119.423C344.502 119.371 344.418 119.308 344.3 119.236C344.207 119.183 344.064 119.131 343.868 119.09C343.671 119.048 343.499 119.027 343.356 119.027C342.894 119.027 342.491 119.142 342.137 119.361C341.793 119.584 341.527 119.892 341.331 120.277C341.144 120.668 341.055 121.1 341.055 121.569C341.055 122.058 341.144 122.496 341.331 122.881C341.527 123.272 341.788 123.579 342.117 123.798C342.457 124.022 342.845 124.131 343.278 124.131C343.735 124.131 344.104 124.058 344.379 123.902C344.428 123.861 344.507 123.798 344.615 123.715C344.703 123.647 344.782 123.6 344.851 123.569C344.915 123.527 344.994 123.506 345.087 123.506C345.254 123.506 345.387 123.564 345.48 123.673C345.584 123.788 345.638 123.939 345.638 124.131C345.638 124.314 345.52 124.501 345.284 124.694C345.057 124.876 344.758 125.027 344.379 125.152C343.995 125.277 343.582 125.34 343.14 125.34C342.481 125.34 341.901 125.183 341.39 124.861C340.888 124.527 340.505 124.079 340.229 123.506C339.964 122.923 339.836 122.277 339.836 121.569C339.836 120.876 339.974 120.246 340.249 119.673C340.534 119.09 340.937 118.642 341.449 118.319C341.96 117.986 342.54 117.819 343.199 117.819Z" fill="black"/>
<path d="M356.907 121.319C356.907 121.486 356.838 121.626 356.71 121.736C356.592 121.85 356.454 121.902 356.297 121.902H351.715C351.779 122.569 352.02 123.111 352.442 123.527C352.86 123.933 353.372 124.131 353.976 124.131C354.394 124.131 354.734 124.069 354.999 123.944C355.26 123.808 355.491 123.642 355.687 123.444C355.815 123.361 355.943 123.319 356.061 123.319C356.204 123.319 356.322 123.376 356.415 123.486C356.518 123.584 356.572 123.709 356.572 123.861C356.572 124.058 356.484 124.23 356.317 124.381C356.066 124.647 355.732 124.876 355.314 125.069C354.906 125.246 354.488 125.34 354.055 125.34C353.347 125.34 352.723 125.189 352.187 124.881C351.661 124.564 351.253 124.126 350.967 123.569C350.677 123.001 350.535 122.361 350.535 121.652C350.535 120.892 350.677 120.215 350.967 119.631C351.267 119.048 351.661 118.605 352.147 118.298C352.644 117.98 353.175 117.819 353.74 117.819C354.291 117.819 354.807 117.975 355.294 118.277C355.776 118.584 356.164 119.001 356.454 119.527C356.754 120.058 356.907 120.652 356.907 121.319ZM353.74 119.027C353.254 119.027 352.836 119.173 352.482 119.465C352.128 119.756 351.892 120.204 351.774 120.798H355.609V120.694C355.569 120.209 355.358 119.814 354.979 119.506C354.611 119.189 354.198 119.027 353.74 119.027Z" fill="black"/>
<path d="M363.808 116.923C363.808 117.147 363.735 117.413 363.592 117.715C363.459 118.007 363.287 118.257 363.081 118.465C362.869 118.673 362.653 118.777 362.432 118.777C362.087 118.777 361.92 118.626 361.92 118.319C361.92 118.194 361.945 118.111 361.999 118.069C362.048 118.017 362.122 117.975 362.215 117.944C362.304 117.918 362.373 117.897 362.412 117.882C362.648 117.73 362.766 117.522 362.766 117.257C362.766 117.163 362.727 117.079 362.648 117.007C362.579 116.939 362.491 116.902 362.373 116.902C362.225 116.902 362.102 116.939 361.999 117.007C361.92 116.954 361.851 116.892 361.802 116.819C361.763 116.751 361.748 116.668 361.763 116.569C361.763 116.335 361.871 116.132 362.097 115.965C362.319 115.798 362.55 115.715 362.786 115.715C363.1 115.715 363.346 115.819 363.533 116.027C363.715 116.236 363.808 116.538 363.808 116.923ZM366.345 116.923C366.345 117.147 366.272 117.413 366.129 117.715C365.996 118.007 365.824 118.257 365.618 118.465C365.406 118.673 365.19 118.777 364.969 118.777C364.624 118.777 364.457 118.626 364.457 118.319C364.457 118.194 364.482 118.111 364.536 118.069C364.6 118.017 364.674 117.975 364.752 117.944C364.841 117.918 364.91 117.897 364.949 117.882C365.195 117.73 365.323 117.522 365.323 117.257C365.323 117.163 365.283 117.079 365.205 117.007C365.126 116.939 365.028 116.902 364.91 116.902C364.762 116.902 364.644 116.939 364.556 117.007C364.462 116.954 364.398 116.892 364.359 116.819C364.32 116.751 364.3 116.668 364.3 116.569C364.3 116.335 364.408 116.132 364.634 115.965C364.856 115.798 365.087 115.715 365.323 115.715C365.637 115.715 365.883 115.819 366.07 116.027C366.252 116.236 366.345 116.538 366.345 116.923Z" fill="black"/>
<path d="M51.68 70.5735C53.5287 70.5735 55.3233 70.2766 57.0687 69.6827C58.8092 69.0783 60.0875 68.4898 60.9037 67.9225L62.123 67.0317L67.2757 78.1449C67.1036 78.288 66.8676 78.4789 66.5677 78.7175C66.2628 78.9455 65.5647 79.3697 64.4633 79.99C63.3718 80.6156 62.2066 81.1565 60.9627 81.623C59.7138 82.0896 58.0815 82.5032 56.0657 82.8743C54.0449 83.2402 51.9603 83.4257 49.8117 83.4257C44.8655 83.4257 40.1799 82.1214 35.75 79.5022C31.3299 76.8883 27.7653 73.2882 25.0513 68.7072C22.3472 64.1156 21 59.1528 21 53.8189C21 49.7893 21.7916 45.9241 23.3797 42.218C24.9776 38.5171 27.0967 35.3412 29.732 32.6954C32.3772 30.055 35.4599 27.9447 38.9753 26.3753C42.5006 24.7953 46.1143 24 49.8117 24C53.2435 24 56.4098 24.4454 59.3107 25.3361C62.2213 26.2163 64.2716 27.0911 65.4663 27.966L67.2757 29.2809L62.123 40.4152C61.8182 40.1342 61.3658 39.7949 60.766 39.3972C60.1613 39.0049 58.9567 38.4853 57.1473 37.849C55.3478 37.2022 53.5287 36.8735 51.68 36.8735C48.7546 36.8735 46.134 37.3825 43.8133 38.4005C41.4927 39.4185 39.6538 40.7652 38.3067 42.43C36.9546 44.1002 35.927 45.8976 35.219 47.817C34.511 49.7416 34.157 51.6981 34.157 53.6917C34.157 58.05 35.6713 61.9523 38.7 65.3987C41.7287 68.8503 46.0553 70.5735 51.68 70.5735Z" fill="black"/>
</svg>
